<svg width="500" height="500" enable-background="new 0 0 438.004 592.145" version="1.1" viewBox="0 0 500 500" xmlns="http://www.w3.org/2000/svg" xmlns:cc="http://creativecommons.org/ns#" xmlns:dc="http://purl.org/dc/elements/1.1/" xmlns:rdf="http://www.w3.org/1999/02/22-rdf-syntax-ns#">
 <metadata>
  <rdf:RDF>
   <cc:Work rdf:about="">
    <dc:format>image/svg+xml</dc:format>
    <dc:type rdf:resource="http://purl.org/dc/dcmitype/StillImage"/>
    <dc:title/>
    <dc:date>23.09.19</dc:date>
    <cc:license rdf:resource="http://creativecommons.org/licenses/by/4.0/"/>
    <dc:creator>
     <cc:Agent>
      <dc:title>The Go gopher was originally designed by Renee French. The GoBitpanda design was made by IoTMOD.</dc:title>
     </cc:Agent>
    </dc:creator>
    <dc:source>http://reneefrench.blogspot.com/</dc:source>
   </cc:Work>
   <cc:License rdf:about="http://creativecommons.org/licenses/by/4.0/">
    <cc:permits rdf:resource="http://creativecommons.org/ns#Reproduction"/>
    <cc:permits rdf:resource="http://creativecommons.org/ns#Distribution"/>
    <cc:requires rdf:resource="http://creativecommons.org/ns#Notice"/>
    <cc:requires rdf:resource="http://creativecommons.org/ns#Attribution"/>
    <cc:permits rdf:resource="http://creativecommons.org/ns#DerivativeWorks"/>
   </cc:License>
  </rdf:RDF>
 </metadata>
 <g transform="matrix(.72764 0 0 .72764 86.885 40.46)">
  <g stroke="#000" stroke-linecap="round" stroke-linejoin="round" stroke-miterlimit="10" stroke-width="6">
   <g fill="#57575b">
    <path d="m45.352 291.01c-13.378 1.876-28.958 5.754-37.066 10.684-7.337 4.463-6.374 17.6-1.154 24.099 5.509 6.862 11.974 6.495 19.779 2.905 5.123-2.357 11.293-7.609 17.667-13.492 0.16-5.126 0.339-10.256 0.543-15.375 0.121-3.039 0.196-5.975 0.231-8.821z"/>
    <path d="m429.72 297.2c-7.5-4.56-21.389-8.217-34.018-10.226 0.316 6.816 0.751 14.31 1.339 22.763 0.106 1.527 0.211 3.033 0.313 4.529 4.959 4.379 9.68 8.068 13.74 9.937 7.807 3.591 14.27 3.958 19.779-2.904 5.221-6.499 6.185-19.638-1.153-24.099z"/>
    <path d="m55.17 564.84c-9.854 17.521 15.9 31.951 29.25 19.801 10.908-9.928 19.518-18.348 38.256-21.098-14.35-5.906-27-13.281-37.752-21.871-13.117 5.129-23.736 12.47-29.754 23.168z"/>
    <path d="m353.74 579.85c11.037 14.283 38.46 1.312 30.443-17.121-5.267-12.111-15.218-22.156-27.677-28.195-8.158 7.618-17.849 14.689-29.308 20.867 12.68 6.005 18.893 14.549 26.542 24.449z"/>
   </g>
   <path d="m43.529 250.72c111.17 29.39 249.91 7.6975 349.97 0" stroke="#000" stroke-linecap="butt" stroke-linejoin="miter" stroke-width="1.3743px"/>
   <path d="m64.739 254.58c65.05 36.474 136.84 54.955 211.14 54.955" fill="none" stroke="#000" stroke-linecap="butt" stroke-linejoin="miter" stroke-width="1.3743px"/>
   <g fill="none">
    <path d="m5.048 322.4c3.333-2.397 5.688-4.991 11.784-8.097"/>
    <path d="m432.96 317.9c-3.333-2.397-5.688-4.991-11.783-8.097"/>
    <path d="m60.871 584.57c0.9-4.951 3.6-13.275 11.7-20.476"/>
    <path d="m376.05 582.96c-0.026-5.031-1.304-15.266-8.866-22.195"/>
   </g>
   <path d="m362.78 57.968c-0.287-0.378-0.565-0.759-0.857-1.136-6.016-7.773-12.405-14.588-19.272-20.518-29.797-25.728-68.582-34.79-124.73-33.123-48.682 1.447-100.47 9.906-134.34 39.903-7.63 6.758-14.343 14.617-19.913 23.729-0.726 1.188-1.439 2.391-2.126 3.622-2.921 5.239-5.633 10.771-8.112 16.638-3.476 8.224-6.49 17.108-8.95 26.793-4.767 18.77-7.463 40.533-7.462 66.257 2e-3 45.133 8.866 67.528 8.332 110.88-0.035 2.846-0.11 5.782-0.231 8.821-0.204 5.119-0.383 10.249-0.543 15.375-1.653 53.107-1.062 105.86-1.499 142.04-0.401 33.204 14.646 62.704 41.845 84.433 10.752 8.59 23.402 15.965 37.752 21.871 25.113 10.337 55.418 16.186 89.844 16.186 50.265 0 87.456-9.652 114.68-24.336 11.459-6.178 21.149-13.249 29.308-20.867 20.359-19.008 31.17-41.422 36.009-61.896 11.47-48.523 9.966-84.08 4.831-158.37-0.103-1.496-0.207-3.002-0.313-4.529-0.588-8.453-1.022-15.947-1.339-22.763-1.733-37.343 0.064-54.317-0.479-96.937-0.463-36.271-3.195-63.161-9.306-85.047-2.776-9.942-6.244-18.858-10.521-27.142-3.61-6.992-7.801-13.534-12.617-19.878z" fill="#cfcfcf"/>
   <path d="m48.464 358.13 0.29184-45.785c0.16051-25.182-0.12278-49.69-0.62947-54.462-0.5067-4.7724-0.85384-8.7344-0.77139-8.8044 0.08247-0.0701 45.634 4.422 55.507 6.4474 82.547 16.933 119.27 16.365 246.52-0.98261 13.408-1.8278 40.947-4.2772 40.947-4.2772s0.0577-0.47728 0.0633 12.196c3e-3 -4.838 1.0782 30.659 2.3887 51.339 1.3105 20.68 2.3868 38.71 2.3918 40.066 8e-3 2.0965-1.1038 3.0562-7.4241 6.4099-23.816 12.638-107.55 27.289-144.16 28.392-89.656 0.37011-129.07-14.804-195.13-30.54z" fill="#57575b" stroke="#57575b" stroke-miterlimit="4" stroke-width="3.8525"/>
  </g>
  <g fill="#fff">
   <g stroke="#000" stroke-linecap="round" stroke-linejoin="round" stroke-miterlimit="10" stroke-width="6">
    <path d="m214.97 170.34c-10.784 0.188-12.401 4.999-21.685 6.657-0.328 5.727-0.745 13.566-1.163 22.896-0.9 20.1 24.6 15.6 24.6 3.6v-33.132c-0.56-0.021-1.137-0.031-1.752-0.021z"/>
    <path d="m216.72 203.5c0 12 25.5 16.5 24.6-3.6-0.429-9.582-0.857-17.59-1.189-23.353-11.689-0.533-13.115-5.813-23.411-6.179v33.132z"/>
   </g>
  </g>
  <path d="m254.67 150.3c-4.354-4.685-9.521-7.238-16.425-8.471-3.664 5.366-12.791 9.169-23.479 9.169-10.278 0-19.112-3.518-23.034-8.56-7.391 1.417-12.753 4.185-17.15 9.26-8.627 9.959-4.437 24.891 7.156 25.695 4.957 0.344 8.624 0.131 11.541-0.391 9.284-1.658 10.901-6.469 21.685-6.657 0.615-0.01 1.192 0 1.752 0.02 10.295 0.366 11.721 5.646 23.411 6.179 2.312 0.105 5.024 0.026 8.289-0.316 11.559-1.207 15.225-16.276 6.254-25.928z" fill="#525256" stroke="#000" stroke-linecap="round" stroke-linejoin="round" stroke-miterlimit="10" stroke-width="6"/>
  <path d="m214.77 151c10.688 0 19.814-3.803 23.479-9.169 1.107-1.622 1.722-3.385 1.722-5.231 0-7.953-11.281-14.4-25.2-14.4-13.917 0-25.2 6.447-25.2 14.4 0 2.08 0.778 4.054 2.166 5.84 3.92 5.042 12.755 8.56 23.033 8.56z"/>
 </g>
 <g transform="translate(1.4413e-8 3.1276e-6)" fill="#57575b">
  <path d="m160.38 55.166c-8.7433-11.847-22.658-18.752-34.626-17.182-8.9245 1.1711-17.372 7.0799-23.175 16.211-5.4883 8.6348-7.9458 18.845-6.7429 28.012 1.4821 11.294 9.5364 21.061 21.545 26.125 0.62087 0.26203 2.9524 0.67524 3.5765 0.59335 1.236-0.16219 1.0146-0.95155 1.5459-2.176 8.1506-18.794 20.398-34.387 36.686-45.728 0.81195-0.5654 2.2005-1.0996 2.3613-2.0754 0.16113-0.97677-0.58314-2.9839-1.1706-3.7802z" stroke-width=".48866"/>
  <path d="m330.48 55.77c9.2018-11.495 23.377-17.848 35.274-15.809 8.8717 1.5206 17.08 7.7565 22.521 17.108 5.145 8.8436 7.1997 19.143 5.6378 28.255-1.9244 11.227-10.356 20.67-22.554 25.259-0.63071 0.23747-2.4612 0.62497-3.0815 0.51865-1.2287-0.2106-1.1433-1.3791-1.6261-2.6235-7.4064-19.1-19.689-35.523-35.52-47.495-0.78914-0.59682-2.1431-0.81622-2.2654-1.7975-0.12266-0.98235 0.99641-2.6436 1.6147-3.4161z" stroke-width=".48866"/>
  <path d="m344.84 109.33c-2.9351-16.773-10.556-30.571-22.039-39.905-9.9818-8.1129-22.591-12.581-35.506-12.581-12.664 0-24.039 5.1083-31.208 14.015-7.5336 9.3588-9.9868 22.261-6.9092 36.33 2.8671 13.107 11.392 26.699 23.391 37.291 11.991 10.587 25.653 16.659 37.483 16.659 10.764 0 19.9-4.0994 26.417-11.857 8.0792-9.6173 11.13-24.179 8.3707-39.952z" stroke-width=".71605"/>
  <path d="m231.19 70.931c-7.1684-8.9063-18.543-14.015-31.207-14.015-12.916 0-25.525 4.4682-35.507 12.581-11.483 9.3331-19.104 23.132-22.039 39.905-2.7604 15.772 0.29144 30.334 8.3714 39.952 6.5176 7.7578 15.652 11.858 26.418 11.858 11.83 0 25.492-6.0715 37.483-16.659 11.998-10.592 20.524-24.184 23.391-37.291 3.0783-14.07 0.6244-26.972-6.9092-36.331z" stroke-width=".71606"/>
 </g>
 <g transform="matrix(.64149 0 0 .64149 74.474 -35.197)" fill="#2b2b2d">
  <path d="m153.8 220.47c-10.23 0-18.553 8.323-18.553 18.554 0 10.23 8.323 18.553 18.553 18.553s18.553-8.322 18.553-18.553-8.322-18.554-18.553-18.554z"/>
  <path d="m345.68 220.47c-10.23 0-18.553 8.323-18.553 18.554 0 10.23 8.323 18.553 18.553 18.553s18.553-8.322 18.553-18.553-8.323-18.554-18.553-18.554z"/>
 </g>
</svg>
